<?xml version="1.0" encoding="utf-8"?>
<!-- Generator: Adobe Illustrator 16.0.0, SVG Export Plug-In . SVG Version: 6.00 Build 0)  -->
<!DOCTYPE svg PUBLIC "-//W3C//DTD SVG 1.1//EN" "http://www.w3.org/Graphics/SVG/1.1/DTD/svg11.dtd">
<svg version="1.1" id="Layer_1" xmlns="http://www.w3.org/2000/svg" xmlns:xlink="http://www.w3.org/1999/xlink" x="0px" y="0px"
	 width="268px" height="134px" viewBox="0 0 268 134" enable-background="new 0 0 268 134" xml:space="preserve">
<polygon id="_x34__2_" fill="#FFFFFF" points="179,112.861 234,112.861 234,133.861 253,133.861 253,112.861 268,112.861 
	268,94.861 253,94.861 253,63.861 234,63.861 234,94.861 200.02,94.861 248.07,-0.139 227.193,-0.139 179,94.234 "/>
<path id="_x30_" fill="#FFFFFF" d="M179,67c0,37.003-20.146,67-45,67c-24.853,0-45-29.996-45-67c0-37.003,20.147-67,45-67
	C158.854,0,179,29.997,179,67z M134,18c-14.912,0-27,21.658-27,49c0,27.341,12.088,49,27,49s27-21.658,27-49S148.912,18,134,18z"/>
<polygon id="_x34__1_" fill="#FFFFFF" points="0,112.861 55,112.861 55,133.861 74,133.861 74,112.861 89,112.861 89,94.861 
	74,94.861 74,63.861 55,63.861 55,94.861 21.02,94.861 69.071,-0.139 48.193,-0.139 0,94.234 "/>
</svg>
